<?xml version="1.0" encoding="utf-8"?>
<?xml-stylesheet type="text/xsl" href="rss1.xsl"?>
<rss version="2.0" xmlns:atom="http://www.w3.org/2005/Atom" xmlns:content="http://purl.org/rss/1.0/modules/content/" xmlns:dc="http://purl.org/dc/elements/1.1/" xmlns:media="http://search.yahoo.com/mrss/">
<channel>
 <title>Getty</title>
 <link>http://www.gettyimg.com/</link>
 <atom:link href="http://www.gettyimg.com/" rel="self" type="application/rss+xml" />

 
                <item>
                <title><![CDATA[【Actresses】Sarah Perles - El Cid s02e02-04(2021)1080p]]></title>
                <link><![CDATA[https://sharemania.us/threads/sarah-perles-el-cid-s02e02-04-2021-1080p.239670/]]></link>
                <description><![CDATA[<article>
<blockquote class="messageText SelectQuoteContainer ugc baseHtml">
Sarah Perles - El Cid s02e02-04(2021)1080p<br>
<br>
<a href="https://imgbox.com/hzNN0Fgl" target="_blank" class="externalLink" rel="nofollow"><img src="https://thumbs2.imgbox.com/d3/9d/hzNN0Fgl_t.jpg" class="bbCodeImage LbImage" alt="[​IMG]" data-url="https://thumbs2.imgbox.com/d3/9d/hzNN0Fgl_t.jpg"></a> <a href="https://imgbox.com/Zwam83h7" target="_blank" class="externalLink" rel="nofollow"><img src="https://thumbs2.imgbox.com/89/bd/Zwam83h7_t.jpg" class="bbCodeImage LbImage" alt="[​IMG]" data-url="https://thumbs2.imgbox.com/89/bd/Zwam83h7_t.jpg"></a> <a href="https://imgbox.com/IdLzVRqx" target="_blank" class="externalLink" rel="nofollow"><img src="https://thumbs2.imgbox.com/35/21/IdLzVRqx_t.jpg" class="bbCodeImage LbImage" alt="[​IMG]" data-url="https://thumbs2.imgbox.com/35/21/IdLzVRqx_t.jpg"></a> <a href="https://imgbox.com/cJr0G10a" target="_blank" class="externalLink" rel="nofollow"><img src="https://thumbs2.imgbox.com/88/dc/cJr0G10a_t.jpg" class="bbCodeImage LbImage" alt="[​IMG]" data-url="https://thumbs2.imgbox.com/88/dc/cJr0G10a_t.jpg"></a> <a href="https://imgbox.com/ASe1CRvz" target="_blank" class="externalLink" rel="nofollow"><img src="https://thumbs2.imgbox.com/af/85/ASe1CRvz_t.jpg" class="bbCodeImage LbImage" alt="[​IMG]" data-url="https://thumbs2.imgbox.com/af/85/ASe1CRvz_t.jpg"></a> <a href="https://imgbox.com/2Sz89ART" target="_blank" class="externalLink" rel="nofollow"><img src="https://thumbs2.imgbox.com/b7/0a/2Sz89ART_t.jpg" class="bbCodeImage LbImage" alt="[​IMG]" data-url="https://thumbs2.imgbox.com/b7/0a/2Sz89ART_t.jpg"></a><br>
Duration: 0:05:14 Resolution: 1920x1080 Format: mp4 Size: 290.11 MB<br>
<a href="https://filejoker.net/dqxhibx6phsu" target="_blank" class="externalLink" rel="nofollow">https://filejoker.net/dqxhibx6phsu</a>
<div class="messageTextEndMarker">&nbsp;</div>
</blockquote>
</article>]]></description>
                <author><![CDATA[piqeros]]></author>
                </item>

                
                <item>
                <title><![CDATA[【Music Videos】Backstreet Boys - We'Ve Got It Goin'On (1080p 5.1) (Clean)]]></title>
                <link><![CDATA[https://sharemania.us/threads/backstreet-boys-weve-got-it-goinon-1080p-5-1-clean.239671/]]></link>
                <description><![CDATA[<article>
<blockquote class="messageText SelectQuoteContainer ugc baseHtml">
<img src="https://i.ibb.co/0YpLzXm/Backstreet-Boys-We-Ve-Got-It-Goin-On-1080p-5-1-mp4-thumbs-2024-03-10-13-22-56.jpg" class="bbCodeImage LbImage" alt="[​IMG]" data-url="https://i.ibb.co/0YpLzXm/Backstreet-Boys-We-Ve-Got-It-Goin-On-1080p-5-1-mp4-thumbs-2024-03-10-13-22-56.jpg" style=""> <br>
<br>
<div class="ToggleTriggerAnchor bbCodeSpoilerContainer">
<button type="button" class="button bbCodeSpoilerButton ToggleTrigger Tooltip JsOnly" data-target="> .SpoilerTarget"><span>Spoiler: <span class="SpoilerTitle">MediaInfo</span></span></button>
<div class="SpoilerTarget bbCodeSpoilerText">Backstreet Boys - We'Ve Got It Goin'On (1080p 5.1).mp4<br>
Format : MPEG-4<br>
Format profile : Base Media / Version 2<br>
Codec ID : mp42 (mp42/mp41)<br>
File size : 305 MiB<br>
Duration : 4 min 8 s<br>
Overall bit rate mode : Variable<br>
Overall bit rate : 10.3 Mb/s<br>
Frame rate : 25.000 FPS<br>
Encoded date : 2024-03-10 04:37:04 UTC<br>
Tagged date : 2024-03-10 04:38:27 UTC<br>
TIM : 00:00:00:00<br>
TSC : 25<br>
TSZ : 1<br>
<br>
Video<br>
ID : 1<br>
Format : AVC<br>
Format/Info : Advanced Video Codec<br>
Format profile : Main@L4.1<br>
Format settings : CABAC / 4 Ref Frames<br>
Format settings, CABAC : Yes<br>
Format settings, Reference : 4 frames<br>
Codec ID : avc1<br>
Codec ID/Info : Advanced Video Coding<br>
Duration : 4 min 8 s<br>
Bit rate : 9 966 kb/s<br>
Width : 1 920 pixels<br>
Height : 1 080 pixels<br>
Display aspect ratio : 16:9<br>
Frame rate mode : Constant<br>
Frame rate : 25.000 FPS<br>
Color space : YUV<br>
Chroma subsampling : 4:2:0<br>
Bit depth : 8 bits<br>
Scan type : Progressive<br>
Bits/(Pixel*Frame) : 0.192<br>
Stream size : 296 MiB (97%)<br>
Language : English<br>
Encoded date : 2024-03-10 04:37:04 UTC<br>
Tagged date : 2024-03-10 04:37:04 UTC<br>
Color range : Limited<br>
Color primaries : BT.709<br>
Transfer characteristics : BT.709<br>
Matrix coefficients : BT.709<br>
Codec configuration box : avcC<br>
<br>
Audio<br>
ID : 2<br>
Format : AAC LC<br>
Format/Info : Advanced Audio Codec Low Complexity<br>
Codec ID : mp4a-40-2<br>
Duration : 4 min 8 s<br>
Source duration : 4 min 8 s<br>
Bit rate mode : Variable<br>
Bit rate : 317 kb/s<br>
Maximum bit rate : 996 kb/s<br>
Channel(s) : 6 channels<br>
Channel layout : C L R Ls Rs LFE<br>
Sampling rate : 48.0 kHz<br>
Frame rate : 46.875 FPS (1024 SPF)<br>
Compression mode : Lossy<br>
Stream size : 9.42 MiB (3%)<br>
Source stream size : 9.42 MiB (3%)<br>
Language : English<br>
Encoded date : 2024-03-10 04:37:04 UTC<br>
Tagged date : 2024-03-10 04:37:04 UTC</div>
</div><br>
<div class="bbCodeBlock bbCodeVfcHH HiddenContent">
<div class="attribution type">Hidden Content:</div>
<blockquote>You must reply before you can see the hidden data contained here.</blockquote>
</div>
<div class="messageTextEndMarker">&nbsp;</div>
</blockquote>
</article>]]></description>
                <author><![CDATA[DJ-RoGeRs-BS]]></author>
                </item>

                </channel></rss>